<?xml version="1.0" standalone="no"?>
<!DOCTYPE svg PUBLIC "-//W3C//DTD SVG 20010904//EN"
 "http://www.w3.org/TR/2001/REC-SVG-20010904/DTD/svg10.dtd">
<svg version="1.0" xmlns="http://www.w3.org/2000/svg"
 width="512.000000pt" height="512.000000pt" viewBox="0 0 512.000000 512.000000"
 preserveAspectRatio="xMidYMid meet">
<metadata>
Created by potrace 1.14, written by Peter Selinger 2001-2017
</metadata>
<g transform="translate(0.000000,512.000000) scale(0.100000,-0.100000)"
fill="#000000" stroke="none">
<path d="M2785 5106 c-81 -20 -115 -43 -220 -150 -187 -190 -283 -363 -374
-676 -4 -14 -12 -25 -17 -24 -5 0 -70 30 -144 66 -138 68 -382 158 -426 158
-33 0 -81 -25 -94 -49 -16 -30 -12 -109 11 -221 11 -57 18 -108 15 -115 -2 -7
-17 -16 -33 -19 -48 -13 -231 -96 -346 -157 -543 -293 -929 -747 -1082 -1274
-191 -658 2 -1351 523 -1872 385 -385 911 -640 1513 -735 126 -20 181 -22 449
-22 348 0 469 13 744 84 1235 316 1996 1345 1776 2400 -125 599 -546 1120
-1164 1439 -61 32 -118 60 -126 63 -12 4 -10 15 14 65 43 91 35 151 -26 184
-82 44 -469 60 -628 26 -95 -21 -215 -60 -273 -89 -22 -11 -41 -17 -44 -15 -7
8 55 126 96 182 20 28 76 95 125 150 113 126 141 183 141 285 0 129 -65 235
-178 289 -74 36 -160 46 -232 27z m152 -221 c33 -22 56 -79 48 -117 -4 -17
-46 -74 -102 -136 -159 -180 -242 -321 -283 -481 -41 -161 -54 -405 -24 -462
32 -63 123 -72 169 -17 22 26 25 39 25 108 0 73 2 81 28 106 82 79 236 153
385 184 98 21 361 29 371 11 11 -17 -106 -110 -190 -151 -46 -23 -132 -54
-195 -69 -144 -36 -147 -38 -164 -72 -32 -61 -22 -86 73 -179 48 -47 107 -103
132 -124 l45 -39 -110 6 c-67 4 -153 17 -220 33 -208 52 -229 41 -277 -132
-35 -130 -82 -222 -149 -295 l-50 -54 -62 65 c-76 80 -156 194 -227 323 -35
64 -64 104 -81 112 -16 9 -93 18 -200 25 -95 6 -175 12 -176 14 -2 2 38 28 88
57 143 84 155 120 80 246 -22 38 -52 96 -66 130 -28 71 -77 234 -71 240 12 12
286 -115 364 -169 l43 -30 -3 -152 c-3 -172 3 -195 60 -222 29 -13 42 -14 72
-5 65 19 73 42 81 241 13 315 98 592 244 788 63 85 180 207 217 226 38 19 87
15 125 -9z m-1297 -1055 l30 -60 -32 -14 c-18 -8 -99 -46 -180 -84 -118 -57
-150 -77 -162 -101 -20 -38 -20 -55 0 -97 21 -44 83 -81 178 -105 84 -22 302
-49 391 -49 33 0 69 -3 80 -6 12 -3 40 -40 70 -92 143 -246 338 -442 441 -442
43 0 110 48 196 139 77 83 135 179 174 290 22 64 25 66 56 65 18 0 80 -8 137
-18 182 -32 370 -13 517 54 67 30 84 51 86 103 2 51 -17 74 -95 113 -40 20
-105 61 -145 92 l-73 55 81 34 c85 35 101 44 186 101 l52 34 68 -30 c317 -140
620 -369 824 -623 230 -287 352 -587 379 -935 88 -1097 -990 -2034 -2339
-2034 -589 0 -1138 175 -1583 504 -515 381 -801 954 -757 1520 17 226 62 396
155 593 159 336 417 614 777 836 111 69 358 186 455 216 2 1 16 -26 33 -59z"/>
<path d="M461 2209 c-30 -29 -31 -34 -31 -112 0 -398 229 -841 589 -1139 51
-42 108 -82 126 -88 74 -24 146 44 131 124 -6 30 -24 50 -120 130 -312 260
-481 571 -511 941 -4 50 -11 100 -16 112 -26 69 -114 86 -168 32z"/>
</g>
</svg>
